<svg xmlns="http://www.w3.org/2000/svg" viewBox="1542 703 3486 2284"><g id="white" transform="translate(0.000000,3964.000000) scale(0.100000,-0.100000)" fill="#FFFFFF"><path d="M30395 32010 c-638 -36 -1255 -316 -1685 -766 -223 -234 -363 -451 -504 -785 -41 -96 -98 -230 -128 -299 -218 -499 -305 -700 -443 -1025 -86 -203 -201 -471 -255 -595 -146 -332 -214 -489 -461 -1066 -38 -88 -97 -230 -133 -315 -35 -85 -91 -215 -124 -289 -143 -324 -283 -646 -402 -930 -70 -168 -158 -372 -195 -455 -36 -82 -88 -204 -115 -270 -27 -66 -75 -181 -108 -255 -154 -350 -276 -632 -304 -700 -16 -41 -57 -133 -90 -205 -33 -71 -101 -227 -150 -345 -50 -118 -111 -260 -135 -315 -25 -55 -76 -172 -113 -260 -76 -180 -251 -584 -363 -840 -167 -381 -344 -790 -412 -955 -40 -96 -116 -274 -170 -395 -53 -121 -125 -287 -159 -370 -35 -82 -91 -212 -125 -288 -33 -76 -61 -139 -61 -141 0 -7 -206 -488 -245 -571 -20 -44 -65 -150 -100 -235 -34 -85 -103 -248 -153 -361 -75 -170 -252 -594 -384 -916 -16 -40 -28 -81 -26 -90 5 -29 103 -35 513 -28 l380 5 73 36 c86 42 169 119 205 189 32 65 254 589 423 1004 30 74 89 208 130 298 41 91 113 255 158 366 46 111 109 258 141 327 31 69 94 217 140 330 46 113 98 237 115 275 67 147 201 459 234 543 19 48 73 175 121 282 48 107 121 276 162 375 41 99 108 257 148 350 40 94 117 274 170 400 197 467 264 611 291 624 34 15 2582 16 2616 0 15 -6 42 -47 76 -112 262 -511 814 -870 1403 -912 137 -10 129 -25 129 253 0 266 -2 272 -77 272 -167 0 -427 91 -605 212 -186 125 -363 340 -444 538 -63 154 -113 407 -101 511 7 56 -7 105 -33 119 -11 6 -116 10 -245 10 -177 0 -232 3 -254 14 -23 13 -176 14 -1029 13 -919 -2 -1003 -1 -1018 15 -15 15 -11 29 61 200 42 100 131 315 196 476 65 161 148 357 185 434 60 129 102 227 186 438 17 41 69 161 115 265 47 105 120 276 163 380 43 105 116 276 163 380 86 192 328 758 410 960 74 181 99 238 222 515 65 146 173 396 241 555 148 350 329 775 386 905 245 560 470 841 828 1033 541 290 1188 220 1660 -178 232 -197 336 -366 570 -925 10 -25 55 -128 100 -230 46 -102 135 -306 200 -455 65 -148 156 -355 202 -460 47 -104 119 -269 160 -365 145 -335 237 -546 323 -745 158 -361 256 -588 310 -720 29 -71 84 -197 120 -280 37 -82 92 -210 122 -284 30 -74 93 -220 140 -325 80 -180 224 -515 264 -618 10 -25 49 -118 88 -205 80 -183 188 -433 236 -548 19 -44 90 -208 158 -365 131 -300 168 -384 302 -700 46 -107 131 -305 190 -440 141 -322 185 -425 317 -735 61 -143 141 -327 178 -410 37 -82 123 -282 191 -443 137 -324 137 -323 208 -287 348 178 586 391 667 597 46 119 45 125 -58 358 -33 74 -106 245 -163 380 -57 135 -120 281 -140 325 -37 81 -166 377 -300 690 -40 94 -116 269 -170 390 -53 121 -141 326 -197 455 -55 129 -126 294 -158 365 -32 72 -95 216 -140 320 -45 105 -110 255 -145 335 -35 80 -74 172 -88 205 -39 94 -121 283 -208 477 -43 97 -110 256 -149 353 -39 97 -84 203 -100 236 -28 55 -223 505 -432 994 -49 116 -119 278 -155 360 -121 276 -305 699 -328 755 -12 30 -69 161 -125 290 -56 129 -126 291 -155 360 -88 207 -150 349 -229 523 -42 91 -76 168 -76 171 0 13 -256 579 -306 676 -123 243 -337 523 -524 687 -493 434 -1110 641 -1795 603z M43050 31890 c-442 -347 -845 -440 -1645 -380 -143 10 -314 26 -380 34 -66 9 -174 23 -240 31 -782 100 -1185 90 -1550 -37 -261 -91 -566 -321 -709 -532 -224 -334 -396 -833 -396 -1151 0 -125 0 -125 107 -125 103 0 98 -4 187 170 113 222 191 321 361 457 302 241 729 340 1255 289 268 -26 550 -55 700 -71 934 -103 1353 -51 1769 219 304 197 579 624 667 1036 34 158 12 168 -126 60z M40762 29679 c-417 -54 -800 -396 -863 -769 -8 -47 -11 -1618 -10 -5555 l1 -5490 21 -17 c52 -44 313 -8 447 62 295 152 505 437 552 750 8 55 10 1553 8 5533 l-3 5459 -24 19 c-25 20 -32 21 -129 8z M32190 24375 c-14 -8 -44 -14 -68 -15 -29 0 -67 -12 -122 -40 -57 -29 -92 -40 -124 -40 -33 0 -52 -7 -75 -26 l-31 -26 0 -112 c0 -273 -62 -490 -196 -692 -30 -44 -54 -90 -54 -101 0 -29 321 -353 349 -353 26 0 48 24 115 125 233 350 351 807 305 1179 -15 120 -34 138 -99 101z M49640 15569 c-220 -160 -467 -183 -940 -89 -275 55 -394 66 -521 51 -290 -35 -482 -186 -589 -462 -49 -128 -85 -342 -62 -375 28 -41 71 -18 118 62 172 297 424 359 1002 249 112 -22 364 -35 458 -24 289 32 503 207 584 476 22 72 24 134 4 140 -6 2 -30 -11 -54 -28z M43923 14873 c-26 -10 -269 -283 -303 -339 l-35 -58 -2 -1082 c-2 -1194 0 -1155 -65 -1257 -61 -96 -178 -175 -306 -208 -72 -18 -120 -19 -1091 -19 -632 0 -1047 4 -1098 10 -344 43 -535 186 -623 465 -19 59 -23 102 -27 267 -7 247 -12 254 -123 167 -208 -164 -284 -622 -157 -939 80 -198 279 -389 487 -469 186 -72 180 -72 1465 -68 1289 3 1187 -3 1350 78 148 73 255 177 331 322 45 86 58 84 106 -13 86 -173 238 -299 438 -362 l75 -23 1275 0 c1397 0 1320 -3 1455 61 336 159 527 656 451 1174 -43 294 -155 708 -197 731 -27 14 -60 -8 -102 -68 -18 -26 -78 -112 -135 -191 -56 -80 -105 -156 -108 -169 -6 -23 7 -83 66 -298 36 -130 53 -393 30 -474 -17 -63 -107 -151 -180 -177 -82 -29 -2406 -30 -2510 -1 -189 52 -315 173 -361 349 -18 70 -19 127 -19 1313 0 1106 -2 1243 -16 1263 -14 21 -43 27 -71 15z M48692 14595 c-119 -55 -216 -152 -283 -281 l-39 -75 0 -1430 c0 -967 3 -1437 10 -1450 28 -51 138 -1 254 114 79 79 153 207 175 302 18 81 21 2806 2 2828 -19 24 -57 21 -119 -8z M17217 14288 c-15 -12 -122 -260 -197 -458 -15 -41 -55 -139 -89 -218 -34 -78 -74 -175 -90 -215 -16 -39 -57 -144 -93 -232 -35 -88 -82 -205 -103 -260 -21 -55 -72 -181 -113 -280 -319 -771 -502 -1229 -502 -1261 0 -40 17 -43 253 -45 213 -2 230 -1 247 17 11 10 55 111 98 224 122 315 139 353 162 372 21 17 67 18 696 18 l673 0 25 -22 c13 -13 35 -52 49 -88 159 -415 186 -478 215 -501 32 -25 471 -30 491 -5 13 15 4 39 -209 571 -115 288 -178 444 -334 825 -31 76 -83 206 -277 690 -32 80 -91 228 -132 330 -41 102 -93 235 -117 295 -64 167 -96 232 -118 244 -31 16 -513 15 -535 -1z m302 -618 c7 -25 96 -252 196 -505 318 -799 304 -760 281 -784 -15 -14 -67 -16 -499 -19 -265 -2 -492 0 -504 3 -44 11 -46 37 -9 132 105 273 196 504 216 548 24 56 125 319 201 524 59 159 55 153 82 149 16 -2 26 -15 36 -48z M22166 14284 c-14 -14 -16 -161 -16 -1470 0 -1441 0 -1454 20 -1474 29 -29 385 -31 419 -2 l20 17 3 1458 c3 1434 3 1459 -16 1473 -30 22 -408 20 -430 -2z M31276 14284 c-25 -24 -24 -2925 1 -2945 23 -20 400 -26 426 -7 16 12 17 54 20 650 2 653 3 672 40 652 22 -13 748 -754 1031 -1052 132 -139 249 -255 260 -258 12 -2 163 -3 336 -2 291 3 315 4 318 21 2 12 -215 238 -703 730 -389 391 -714 722 -722 734 -12 17 -12 26 -2 45 12 24 348 369 704 723 325 324 675 682 675 692 0 30 -27 33 -319 33 l-295 0 -131 -132 c-71 -73 -299 -308 -505 -523 -540 -561 -623 -645 -644 -657 -45 -25 -46 -15 -46 650 0 410 -4 630 -10 643 -15 26 -408 30 -434 3z M42465 13976 c-298 -83 -611 -339 -685 -560 -73 -221 -2 -344 231 -395 126 -28 149 -41 149 -81 0 -72 -113 -150 -347 -239 -233 -88 -273 -114 -273 -173 0 -41 25 -48 164 -48 494 0 873 270 843 601 -12 140 -120 224 -347 273 -69 14 -80 21 -80 52 0 55 145 161 299 219 l74 28 43 91 c47 101 81 214 71 239 -8 22 -44 21 -142 -7z"/></g><g id="gray" transform="translate(0.000000,3964.000000) scale(0.100000,-0.100000)" fill="#95A4A8"><path d="M16383 8785 c-166 -45 -271 -149 -308 -306 -19 -83 -19 -308 0 -453 34 -258 171 -369 455 -369 259 0 422 116 461 329 27 145 -2 509 -47 597 -87 168 -343 260 -561 202z m251 -186 c52 -14 120 -79 134 -127 15 -51 16 -432 1 -487 -43 -157 -318 -201 -438 -70 -51 56 -53 68 -49 332 l3 221 30 43 c60 86 194 123 319 88z M17400 8770 c-19 -19 -20 -33 -20 -538 0 -425 2 -522 14 -537 21 -29 133 -34 166 -7 l25 20 0 416 c0 412 4 459 32 424 6 -7 20 -47 31 -88 161 -591 209 -751 234 -772 29 -25 328 -27 352 -2 14 14 16 76 16 540 0 617 10 569 -113 558 -39 -4 -78 -12 -86 -18 -11 -9 -13 -83 -9 -444 3 -339 2 -435 -8 -443 -19 -15 -38 21 -64 126 -12 50 -33 126 -46 170 -13 44 -53 190 -89 325 -83 311 -64 290 -266 290 -136 0 -151 -2 -169 -20z M20442 8781 c-60 -4 -96 -11 -101 -19 -11 -18 -23 -756 -14 -925 7 -166 8 -167 102 -167 105 0 102 -6 108 213 5 138 9 190 19 198 8 7 88 14 193 18 209 9 253 24 334 110 110 118 99 350 -23 471 -99 100 -244 124 -618 101z m427 -209 c110 -55 102 -218 -12 -279 -47 -25 -279 -23 -308 2 -27 25 -29 247 -2 277 24 26 271 27 322 0z M21690 8778 c-26 -14 -32 -29 -88 -228 -16 -58 -52 -184 -80 -280 -91 -317 -152 -540 -152 -558 0 -32 22 -42 95 -42 89 0 96 7 130 121 38 125 34 123 230 127 231 6 225 10 264 -143 26 -101 33 -106 141 -103 l85 3 -1 35 c-1 19 -20 96 -44 170 -23 74 -55 180 -70 235 -15 55 -41 143 -58 195 -16 52 -51 172 -77 265 -28 103 -54 178 -66 190 -25 25 -265 35 -309 13z m168 -191 c6 -7 18 -40 26 -73 7 -32 29 -111 46 -174 75 -263 76 -260 -118 -244 -133 11 -133 11 -99 135 14 52 37 146 52 209 14 63 30 125 35 138 11 24 41 29 58 9z M23800 8770 c-16 -16 -20 -33 -20 -79 0 -88 6 -91 158 -91 99 0 132 -3 150 -16 l22 -15 0 -430 c0 -501 -7 -469 103 -469 81 0 100 14 103 71 0 24 2 218 3 430 1 315 4 389 15 405 13 17 31 20 151 24 156 6 155 5 155 92 0 88 13 84 -316 91 -468 11 -501 10 -524 -13z M25146 8782 c-82 -1 -145 -7 -153 -14 -10 -8 -13 -114 -13 -539 0 -609 -9 -559 100 -559 110 0 102 -35 100 454 -2 492 -4 446 15 446 20 0 29 -22 66 -170 16 -69 48 -186 69 -260 21 -74 55 -202 76 -285 22 -87 46 -157 56 -167 23 -23 348 -28 366 -5 7 8 13 190 17 535 l5 522 -24 25 c-34 34 -135 36 -167 4 -22 -22 -22 -23 -17 -455 4 -343 2 -436 -8 -445 -21 -17 -39 24 -77 171 -113 436 -192 710 -209 725 -19 18 -47 20 -202 17z M26584 8783 c-251 -3 -304 -6 -314 -18 -9 -11 -12 -138 -11 -537 1 -518 2 -523 22 -540 19 -16 51 -18 338 -18 174 0 322 4 330 9 21 13 33 109 18 140 l-12 26 -232 5 c-284 6 -268 -3 -268 141 0 143 -7 139 239 139 231 0 236 2 236 86 0 92 -4 94 -234 94 -246 0 -235 -7 -239 142 -3 151 -18 142 251 146 257 4 252 2 252 97 0 97 23 92 -376 88z M27383 8782 c-45 -7 -45 -3 -44 -559 2 -607 -9 -553 107 -553 101 0 99 -5 101 218 1 233 -12 217 176 217 234 0 231 3 232 -236 0 -196 -2 -192 94 -197 111 -7 107 -15 102 205 -3 205 -9 229 -60 277 -39 38 -39 40 10 93 57 62 79 115 79 194 0 180 -90 285 -289 335 -58 15 -418 19 -508 6z m507 -200 c88 -44 111 -168 44 -242 -46 -51 -81 -60 -231 -60 -164 0 -172 11 -159 194 9 125 10 126 180 126 105 0 138 -4 166 -18z M18662 8768 c-9 -9 -12 -142 -12 -538 0 -498 1 -528 18 -543 17 -15 55 -17 340 -17 374 0 362 -3 362 93 0 87 0 87 -246 87 -272 0 -258 -7 -262 134 -4 155 -18 146 234 146 236 0 234 -1 234 86 0 98 9 94 -225 94 -256 0 -245 -7 -245 143 0 152 -16 143 241 139 261 -3 259 -4 259 96 0 40 -5 73 -12 80 -9 9 -99 12 -343 12 -244 0 -334 -3 -343 -12z M22670 8761 c-6 -13 -10 -200 -10 -540 l0 -520 22 -15 c34 -24 133 -21 158 4 18 18 20 33 20 194 0 230 -10 220 219 214 139 -3 141 -3 168 -31 l28 -28 -3 -164 c-3 -203 -2 -205 111 -205 43 0 78 5 85 12 15 15 17 336 2 390 -7 24 -25 49 -50 70 -51 40 -50 61 4 109 135 119 94 389 -73 473 -100 51 -137 56 -412 56 -245 0 -259 -1 -269 -19z m548 -188 c77 -36 104 -138 59 -216 -40 -68 -69 -77 -240 -77 -182 0 -177 -4 -177 150 0 124 5 145 33 157 34 15 285 4 325 -14z M28613 7910 c-84 -34 -82 -200 2 -236 82 -34 165 -7 195 65 16 41 -10 131 -46 160 -29 23 -108 28 -151 11z"/></g><g id="gold" transform="translate(0.000000,3964.000000) scale(0.100000,-0.100000)" fill="#DFB164"><path d="M37039 15054 c-11 -14 -14 -378 -15 -2202 l-1 -2186 23 -23 c31 -31 210 -35 237 -5 21 23 27 4393 6 4418 -18 22 -232 20 -250 -2z"/></g><g id="cyan" transform="translate(0.000000,3964.000000) scale(0.100000,-0.100000)" fill="#00E0FE"><path d="M38270 27456 c-146 -33 -271 -136 -348 -287 l-27 -54 -5 -2340 -6 -2340 -22 -132 c-66 -396 -184 -726 -383 -1068 -220 -379 -639 -741 -1058 -912 -338 -138 -493 -167 -886 -168 -326 0 -345 2 -579 66 -446 122 -925 425 -1291 815 -76 82 -223 235 -325 339 -103 105 -258 269 -345 365 -87 96 -218 234 -290 305 -72 72 -214 220 -315 330 -102 110 -246 263 -321 340 -75 77 -154 165 -176 195 -53 72 -372 390 -393 390 -8 0 -54 -39 -100 -86 -214 -218 -548 -364 -830 -364 -89 0 -90 -2 -90 -270 0 -305 -19 -285 251 -249 85 11 176 27 203 35 83 24 95 20 161 -49 33 -35 168 -178 300 -317 132 -140 287 -306 344 -369 57 -64 154 -168 215 -231 202 -208 368 -383 566 -595 706 -757 1032 -1031 1520 -1276 353 -178 631 -269 1045 -341 198 -34 750 -34 935 0 314 59 643 154 843 243 436 194 858 521 1181 914 293 357 499 747 672 1272 68 207 128 487 144 671 6 69 14 130 17 135 3 5 5 1042 5 2305 0 2527 4 2374 -59 2500 -90 178 -331 278 -553 228z M30340 25860 c-85 -12 -244 -41 -253 -47 -4 -2 -39 -13 -78 -24 -541 -150 -1051 -646 -1203 -1171 -46 -159 -80 -346 -66 -363 11 -13 50 -15 269 -13 l256 3 7 58 c45 356 365 757 721 902 175 72 292 96 493 102 163 5 192 3 285 -17 495 -107 867 -453 964 -895 27 -127 29 -130 56 -127 109 11 152 22 216 55 51 26 86 37 116 37 61 0 137 48 137 87 0 80 -71 287 -158 456 -106 210 -213 347 -429 549 -307 288 -897 469 -1333 408z M30360 24825 c-383 -84 -626 -376 -624 -750 1 -345 187 -602 526 -726 242 -89 569 -20 771 162 250 226 321 541 197 872 -96 257 -384 446 -690 454 -73 1 -139 -3 -180 -12z M36714 18879 c-263 -24 -480 -187 -560 -421 -34 -101 -34 -268 0 -386 113 -389 572 -561 931 -349 223 131 347 388 301 624 -64 333 -353 561 -672 532z M38035 18852 c-156 -48 -256 -117 -351 -242 -217 -286 -133 -681 189 -887 250 -160 574 -117 797 107 226 226 243 545 45 825 -132 186 -431 272 -680 197z M25817 14322 c-19 -21 -26 -393 -8 -421 5 -7 26 -16 47 -20 72 -13 2264 -3 2280 10 19 15 21 418 2 437 -9 9 -280 12 -1158 12 -1098 0 -1148 -1 -1163 -18z M25835 13067 c-36 -12 -38 -35 -30 -245 5 -143 10 -191 21 -202 13 -13 153 -15 1137 -15 617 0 1134 3 1149 8 37 10 38 20 41 239 2 156 -1 190 -13 202 -14 14 -147 16 -1148 18 -622 2 -1143 -1 -1157 -5z M25837 11791 c-33 -9 -37 -34 -37 -222 0 -194 6 -231 37 -244 29 -12 2285 -6 2300 7 18 15 19 417 1 441 -12 15 -108 16 -1151 19 -625 2 -1143 1 -1150 -1z M46723 11006 c-331 -108 -320 -578 16 -656 315 -73 539 309 330 563 -68 83 -238 128 -346 93z M45957 10998 c-310 -40 -369 -472 -85 -619 67 -35 195 -33 263 3 161 84 235 282 162 431 -67 136 -192 205 -340 185z M31923 8795 c-85 -23 -115 -39 -174 -93 -75 -69 -104 -140 -97 -245 11 -163 115 -252 373 -321 190 -50 262 -108 236 -189 -24 -70 -97 -109 -206 -110 -119 0 -176 42 -209 155 -20 70 -30 76 -129 74 -94 -3 -111 -15 -109 -78 9 -213 198 -348 471 -335 262 12 403 126 403 328 1 193 -74 266 -351 340 -178 48 -192 53 -226 89 -80 83 7 195 151 195 86 0 133 -29 169 -106 35 -77 38 -79 125 -79 97 0 105 8 96 88 -16 140 -112 241 -269 280 -98 25 -179 27 -254 7z M33728 8787 c-126 -43 -215 -124 -271 -244 -21 -46 -22 -60 -22 -318 l0 -270 32 -67 c74 -156 208 -238 394 -238 84 0 163 20 202 50 35 27 53 25 95 -11 32 -29 40 -31 85 -26 69 9 73 15 80 117 9 120 -3 416 -17 436 -9 12 -48 16 -198 21 -231 8 -238 5 -238 -87 0 -77 16 -90 118 -90 91 0 112 -10 112 -53 0 -137 -202 -217 -340 -134 -96 57 -110 99 -110 323 0 269 18 325 119 377 58 29 162 38 214 18 44 -17 96 -71 107 -111 17 -63 30 -70 125 -70 53 0 86 4 91 12 21 34 -16 185 -60 242 -95 125 -341 183 -518 123z M39001 8779 c-36 -12 -90 -38 -122 -59 -147 -101 -173 -184 -167 -537 6 -303 28 -369 152 -448 255 -163 622 -87 734 153 l27 57 0 255 c0 237 -2 260 -23 327 -37 117 -113 198 -229 244 -85 33 -281 38 -372 8z m299 -208 c85 -51 94 -82 98 -329 4 -251 -4 -290 -70 -346 -99 -85 -287 -68 -353 32 -37 56 -47 133 -43 343 l3 187 30 44 c71 100 228 133 335 69z M45404 8780 c-129 -41 -212 -114 -261 -231 -27 -62 -28 -71 -31 -289 -4 -240 3 -306 42 -395 62 -140 198 -215 390 -215 264 0 427 116 455 324 14 99 -3 116 -110 116 -66 0 -109 -28 -109 -70 0 -51 -54 -122 -120 -156 -55 -28 -184 -26 -232 4 -83 52 -103 133 -96 395 4 161 7 187 26 224 91 177 375 155 407 -32 14 -77 25 -85 118 -85 94 0 107 7 107 61 0 102 -67 233 -150 294 -100 74 -298 98 -436 55z M29803 8780 c-34 -14 -35 -24 -31 -570 4 -591 -7 -540 109 -540 117 0 108 -31 113 430 5 471 -1 656 -21 676 -16 16 -133 19 -170 4z M30424 8780 c-12 -5 -24 -20 -26 -34 -11 -56 1 -1048 13 -1062 13 -16 145 -20 169 -4 22 14 29 121 29 472 1 174 4 323 7 332 17 45 39 -5 88 -209 20 -82 56 -215 80 -295 24 -80 52 -172 61 -205 29 -105 30 -105 231 -105 147 0 173 2 185 17 12 13 14 111 14 545 0 613 11 558 -110 558 -112 0 -104 34 -107 -447 -3 -407 -7 -457 -35 -421 -6 7 -18 45 -27 83 -10 39 -38 142 -63 230 -25 88 -58 210 -73 270 -47 186 -71 254 -93 270 -24 17 -304 21 -343 5z M32851 8771 c-21 -21 -21 -26 -21 -539 0 -610 -9 -562 109 -562 121 0 111 -51 111 556 0 430 -2 523 -14 539 -22 31 -156 35 -185 6z M35351 8772 c-19 -16 -21 -29 -23 -225 -3 -172 -6 -209 -18 -217 -8 -5 -90 -10 -181 -10 -229 0 -213 -17 -217 231 -2 107 -8 202 -13 211 -16 30 -174 26 -190 -4 -9 -17 -13 -156 -13 -534 -1 -601 -10 -554 109 -554 105 0 103 -4 111 225 5 149 10 194 22 208 22 24 352 26 376 1 14 -13 16 -47 16 -214 0 -187 1 -200 19 -210 30 -15 157 -13 174 4 11 12 15 99 20 479 7 525 4 592 -27 612 -32 20 -140 18 -165 -3z M35903 8780 c-39 -16 -44 -130 -7 -171 15 -17 32 -19 139 -19 87 0 126 -4 140 -14 18 -13 19 -36 20 -446 2 -501 -8 -460 110 -460 120 0 110 -41 110 460 0 415 1 432 20 446 14 10 53 14 150 14 161 0 165 3 165 103 0 103 25 97 -435 96 -214 0 -400 -4 -412 -9z M37565 8767 c-25 -36 -20 -123 10 -152 23 -24 30 -25 143 -25 174 0 156 51 160 -457 4 -499 -5 -461 111 -465 119 -4 111 -36 111 467 0 396 1 423 18 438 15 14 42 17 149 17 113 0 132 2 146 18 23 25 23 129 1 160 l-15 22 -410 -1 c-406 -1 -409 -1 -424 -22z M40616 8771 c-29 -32 -20 -1066 8 -1087 28 -20 169 -19 186 1 14 17 26 880 14 1008 -8 90 -17 97 -113 97 -64 0 -81 -3 -95 -19z M41226 8769 c-14 -20 -15 -69 -10 -428 2 -223 4 -459 4 -523 0 -145 2 -148 105 -148 116 0 110 -22 111 420 1 422 1 420 14 420 12 0 46 -109 55 -180 8 -66 48 -248 74 -345 10 -38 31 -115 46 -170 38 -145 39 -145 200 -145 113 0 134 2 147 18 9 9 36 100 62 202 25 102 53 208 61 235 8 28 28 103 44 169 29 116 43 148 58 132 5 -4 9 -171 11 -371 2 -306 5 -365 18 -376 20 -17 169 -18 186 -1 10 10 13 120 13 543 l0 531 -22 18 c-36 29 -315 26 -348 -4 -25 -23 -49 -111 -129 -476 -14 -63 -34 -156 -46 -206 -11 -50 -20 -103 -20 -117 0 -39 -21 -77 -41 -77 -19 0 -23 10 -34 90 -7 52 -35 174 -77 340 -17 63 -47 186 -68 273 -21 91 -44 166 -54 175 -14 14 -43 18 -180 20 -161 3 -164 3 -180 -19z M42841 8771 c-8 -13 -11 -188 -11 -545 l0 -525 22 -15 c33 -23 139 -22 168 2 21 17 23 28 29 197 7 220 -8 205 208 205 178 0 233 15 312 86 78 70 104 142 99 268 -7 168 -69 259 -215 317 -86 34 -595 43 -612 10z m530 -207 c101 -59 104 -187 6 -252 -39 -26 -47 -27 -168 -27 -169 0 -165 -4 -162 153 2 156 2 156 169 150 97 -4 129 -9 155 -24z M44165 8778 c-27 -15 -33 -26 -45 -73 -29 -112 -55 -206 -101 -370 -29 -99 -57 -202 -64 -230 -7 -27 -32 -117 -56 -200 -23 -82 -43 -168 -43 -190 l-1 -40 84 -3 c97 -3 115 6 132 72 18 73 51 146 70 156 10 6 94 10 187 10 200 0 199 1 237 -125 34 -111 40 -115 145 -115 107 0 120 9 96 69 -8 22 -27 86 -41 143 -15 57 -51 177 -80 268 -30 91 -72 233 -95 315 -63 236 -81 289 -102 308 -24 21 -288 25 -323 5z m184 -240 c5 -18 26 -94 46 -168 20 -74 43 -152 51 -174 29 -75 1 -96 -129 -96 -133 0 -145 17 -103 149 23 71 67 230 80 294 9 39 42 36 55 -5z M46256 8768 c-20 -29 -21 -127 -2 -154 13 -17 29 -19 133 -22 65 -1 128 -5 140 -7 40 -9 43 -47 43 -476 0 -476 -9 -439 110 -439 118 0 110 -34 110 460 0 353 2 419 15 437 14 20 25 22 150 25 93 2 138 7 147 16 16 16 13 149 -4 169 -8 10 -95 13 -419 13 l-408 0 -15 -22z M47405 7923 c-112 -29 -126 -213 -18 -254 104 -39 203 24 203 129 0 93 -84 150 -185 125z"/></g></svg>
